<svg xmlns="http://www.w3.org/2000/svg" viewBox="0 0 24 24" fill="none">
  <path d="M3 10h18v10a2 2 0 0 1-2 2H5a2 2 0 0 1-2-2V10Z" stroke="#334155" stroke-width="1.6"/>
  <path d="M12 10v12" stroke="#334155" stroke-width="1.6"/>
  <path d="M3 10V7a2 2 0 0 1 2-2h14a2 2 0 0 1 2 2v3" stroke="#334155" stroke-width="1.6"/>
  <path d="M12 5c-1.5-2.5-6-2-6 1.5C6 9 12 9 12 9" stroke="#334155" stroke-width="1.6" fill="none"/>
  <path d="M12 5c1.5-2.5 6-2 6 1.5C18 9 12 9 12 9" stroke="#334155" stroke-width="1.6" fill="none"/>
</svg>